/* XPM */
static char *da3cbe2dba014e8fbd1fee02a05182a07izzz6OwvEJNN3Dg[] = {
/* columns rows colors chars-per-pixel */
"16 16 207 2 ",
"   c None",
".  c #1E1C14",
"X  c #1C1C18",
"o  c #222119",
"O  c #27231A",
"+  c #22221F",
"@  c #25241C",
"#  c #2A261A",
"$  c #29271D",
"%  c #2B271D",
"&  c #2E2919",
"*  c #352811",
"=  c #3B321A",
"-  c #3C311A",
";  c #141E34",
":  c #1E2128",
">  c #1B212D",
",  c #1C222C",
"<  c #1F2631",
"1  c #182135",
"2  c #182237",
"3  c #1F2B3E",
"4  c #1E2A3F",
"5  c #232420",
"6  c #2B2820",
"7  c #2B2A20",
"8  c #2A2B27",
"9  c #242829",
"0  c #2A2B2B",
"q  c #2D2E29",
"w  c #2D2D2C",
"e  c #302D23",
"r  c #342F21",
"t  c #2D312F",
"y  c #2E302F",
"u  c #2F322F",
"i  c #393420",
"p  c #3F3423",
"a  c #32302E",
"s  c #35352C",
"d  c #383529",
"f  c #39382E",
"g  c #3C3B2E",
"h  c #232832",
"j  c #222833",
"k  c #222A37",
"l  c #272D37",
"z  c #202B39",
"x  c #262F3B",
"c  c #252F3F",
"v  c #2B3034",
"b  c #2A3135",
"n  c #2F3435",
"m  c #2D343A",
"M  c #2F353B",
"N  c #2B323C",
"B  c #2B333F",
"V  c #2B343C",
"C  c #2E363D",
"Z  c #2E363F",
"A  c #363731",
"S  c #343533",
"D  c #333537",
"F  c #343635",
"G  c #363736",
"H  c #393A35",
"J  c #3E3C35",
"K  c #303538",
"L  c #34373A",
"P  c #30373E",
"I  c #32373F",
"U  c #343A3C",
"Y  c #353A3D",
"T  c #373B3D",
"R  c #383B38",
"E  c #393D3D",
"W  c #383D3F",
"Q  c #483716",
"!  c #41381D",
"~  c #473B1D",
"^  c #4A3A19",
"/  c #403A27",
"(  c #4D3F22",
")  c #483F2D",
"_  c #3E403B",
"`  c #3E413F",
"'  c #55441D",
"]  c #4A4125",
"[  c #4E4126",
"{  c #5A4A22",
"}  c #53492A",
"|  c #464434",
" . c #494536",
".. c #46463A",
"X. c #43433C",
"o. c #49483A",
"O. c #4F4B38",
"+. c #494B3F",
"@. c #584D30",
"#. c #5F5539",
"$. c #655732",
"%. c #695D3B",
"&. c #685F3A",
"*. c #73612E",
"=. c #706439",
"-. c #74673E",
";. c #0F2140",
":. c #1F2C41",
">. c #1A2A47",
",. c #1C2D47",
"<. c #1E3252",
"1. c #19325E",
"2. c #212F43",
"3. c #242E41",
"4. c #212F45",
"5. c #273140",
"6. c #243143",
"7. c #263345",
"8. c #2A3540",
"9. c #2A3544",
"0. c #283447",
"q. c #283547",
"w. c #2C3744",
"e. c #22324B",
"r. c #293548",
"t. c #28364B",
"y. c #26384F",
"u. c #2D3A49",
"i. c #2C394B",
"p. c #2E3B4E",
"a. c #323941",
"s. c #313843",
"d. c #313A43",
"f. c #343D43",
"g. c #323C45",
"h. c #353C45",
"j. c #343C46",
"k. c #323C49",
"l. c #353F4B",
"z. c #333D4D",
"x. c #233450",
"c. c #223451",
"v. c #263854",
"b. c #253856",
"n. c #2C3C52",
"m. c #2D3C52",
"M. c #273B5A",
"N. c #253B5F",
"B. c #2B3D5A",
"V. c #2A3D5D",
"C. c #2E3E5C",
"Z. c #2E3F5F",
"A. c #3B4141",
"S. c #394042",
"D. c #3A4042",
"F. c #384145",
"G. c #3B4344",
"H. c #36424B",
"J. c #3A4349",
"K. c #39434D",
"L. c #2F415C",
"P. c #354250",
"I. c #364353",
"U. c #3A4755",
"Y. c #304259",
"T. c #374459",
"R. c #30435E",
"E. c #36435D",
"W. c #33465F",
"Q. c #2C4262",
"!. c #364B65",
"~. c #3D4E62",
"^. c #444844",
"/. c #464E4E",
"(. c #4E5041",
"). c #4B5048",
"_. c #505145",
"`. c #595747",
"'. c #5A5946",
"]. c #505348",
"[. c #555649",
"{. c #585C4E",
"}. c #444F57",
"|. c #4D5455",
" X c #575B51",
".X c #585E57",
"XX c #605E49",
"oX c #5D6054",
"OX c #59615B",
"+X c #676248",
"@X c #66654C",
"#X c #67664F",
"$X c #6C664B",
"%X c #656752",
"&X c #686A58",
"*X c #696C59",
"=X c #7B7857",
"-X c #4B5A65",
";X c #7E7F64",
":X c #84733D",
">X c #877844",
",X c #887E4D",
"<X c #8E8354",
"1X c #85825D",
"2X c #9E9159",
"3X c #8A8867",
"4X c #ABA068",
/* pixels */
"          #.J G X.+X2X          ",
"      <X}.b.q.q.f.S.i.T [       ",
"    $X~.Q.H.a.B W ].G.2.C @.    ",
"  ) L.R.|.T.Z.n.i.l.K v C K (   ",
"  z.N.j.E.Z.B.b.n.p.z , w M d   ",
"4X!.U.z.V.1.K.`.&X*Xk.; : A v :X",
"3XW.OXI.B.-XXXO.A.v.'.;.: | 9 =.",
"oXY./.k.M.;X_. .T {.{.6.v g 8 } ",
"U c.l c <.[.S...7.H.%Xc G $ 5 - ",
"a e.j 2 >.w.#X=X^.,.@Xk 0 O X * ",
"/ 0.N j 1 3 .X1X).W M x s # . Q ",
"  E e._ < k q.t.4.:.2.D / 7 !   ",
"  -.J.h.R n C j.a.I D r $ i *.  ",
"    %.f.B R (.+.f e % @ & {     ",
"      $.o.T b t q + o - '       ",
"          >X,X&.] ~ ^           "
};
