/* XPM */
static char *_013ae54f24f4963fe730d856453d3ba2WXVi7M1PSS0LZR1[] = {
/* columns rows colors chars-per-pixel */
"64 64 235 2 ",
"   c None",
".  c #010203",
"X  c #01050D",
"o  c #0B0C0C",
"O  c #090908",
"+  c #18150E",
"@  c #040A13",
"#  c #030C1B",
"$  c #070B13",
"%  c #0B111A",
"&  c #131413",
"*  c #171818",
"=  c #221B0D",
"-  c #221E16",
";  c #1F201D",
":  c #23211B",
">  c #2B271A",
",  c #352A17",
"<  c #3C321B",
"1  c #34270F",
"2  c #020E24",
"3  c #0B1423",
"4  c #08152A",
"5  c #151A25",
"6  c #141C2C",
"7  c #181D27",
"8  c #0C1A33",
"9  c #061A3C",
"0  c #0B1D3C",
"q  c #051635",
"w  c #131E33",
"e  c #141F34",
"r  c #1B212C",
"t  c #1E2326",
"y  c #0F213E",
"u  c #162134",
"i  c #1B2433",
"p  c #13223C",
"a  c #1A263B",
"s  c #1D293D",
"d  c #1F2936",
"f  c #222224",
"g  c #22252B",
"h  c #252A2C",
"j  c #2A2C2C",
"k  c #2B2A24",
"l  c #322E24",
"z  c #2D302D",
"x  c #32322C",
"c  c #383629",
"v  c #242A34",
"b  c #2A2E33",
"n  c #232D3C",
"m  c #222834",
"M  c #2C3135",
"N  c #26313C",
"B  c #2B333C",
"V  c #333533",
"C  c #3B3B32",
"Z  c #32363B",
"A  c #35393D",
"S  c #3A3D3C",
"D  c #363835",
"F  c #442D0E",
"G  c #49320F",
"H  c #4E3915",
"J  c #483617",
"K  c #533C14",
"L  c #523D18",
"P  c #422F13",
"I  c #463C25",
"U  c #413F31",
"Y  c #3D413A",
"T  c #5C461C",
"R  c #58431A",
"E  c #624B1D",
"W  c #684F1E",
"Q  c #68501F",
"!  c #49422B",
"~  c #534523",
"^  c #5D4B23",
"/  c #574B29",
"(  c #5D512D",
")  c #454334",
"_  c #44433A",
"`  c #4B4B3B",
"'  c #4A4835",
"]  c #534E35",
"[  c #585339",
"{  c #644E22",
"}  c #645125",
"|  c #6B5423",
" . c #6B5A2C",
".. c #68562B",
"X. c #745B26",
"o. c #745E2A",
"O. c #785F27",
"+. c #665A35",
"@. c #7A622B",
"#. c #77622D",
"$. c #6D623C",
"%. c #736333",
"&. c #7C6A35",
"*. c #7A6A39",
"=. c #061D44",
"-. c #091E42",
";. c #061F4A",
":. c #081F48",
">. c #0E2244",
",. c #07214D",
"<. c #0A224B",
"1. c #132544",
"2. c #1B2B44",
"3. c #11264B",
"4. c #14294C",
"5. c #1B2D4B",
"6. c #172744",
"7. c #0A2553",
"8. c #0A275A",
"9. c #0B295C",
"0. c #0B2654",
"q. c #132B53",
"w. c #132E5B",
"e. c #182E53",
"r. c #1C3153",
"t. c #1B345C",
"y. c #16315C",
"u. c #1D304D",
"i. c #212E42",
"p. c #263244",
"a. c #2B3643",
"s. c #23334B",
"d. c #2C3A4C",
"f. c #2C3747",
"g. c #353C43",
"h. c #393D43",
"j. c #333D4B",
"k. c #373D47",
"l. c #233553",
"z. c #2C3C53",
"x. c #2B3D5B",
"c. c #243959",
"v. c #313F56",
"b. c #0B2C64",
"n. c #0B2E6B",
"m. c #072A68",
"M. c #112E61",
"N. c #0D306D",
"B. c #143163",
"V. c #1B3562",
"C. c #13336B",
"Z. c #1C396C",
"A. c #1B3869",
"S. c #0C3272",
"D. c #133671",
"F. c #243C63",
"G. c #3C4244",
"H. c #36414C",
"J. c #3B444C",
"K. c #3B4448",
"L. c #2E415C",
"P. c #354254",
"I. c #394454",
"U. c #34435B",
"Y. c #39465C",
"T. c #3C4958",
"R. c #294169",
"E. c #394661",
"W. c #354764",
"Q. c #274474",
"!. c #434644",
"~. c #4B4C43",
"^. c #454B4B",
"/. c #464A48",
"(. c #4E524B",
"). c #5C5A44",
"_. c #565648",
"`. c #454E56",
"'. c #4C5454",
"]. c #47525A",
"[. c #555B57",
"{. c #514F41",
"}. c #625D46",
"|. c #615F50",
" X c #5B625A",
".X c #686448",
"XX c #756B45",
"oX c #7B7248",
"OX c #696955",
"+X c #777559",
"@X c #736F53",
"#X c #485764",
"$X c #525E65",
"%X c #425873",
"&X c #586266",
"*X c #6D7164",
"=X c #826A2F",
"-X c #80662C",
";X c #846D32",
":X c #896F31",
">X c #8C7334",
",X c #87743B",
"<X c #957C3A",
"1X c #937A38",
"2X c #8C7B42",
"3X c #867946",
"4X c #8E7E48",
"5X c #9B823D",
"6X c #998748",
"7X c #968B55",
"8X c #948955",
"9X c #A38A43",
"0X c #A38E49",
"qX c #AA9248",
"wX c #A89855",
"eX c #B49C4F",
"rX c #BBA353",
"tX c #B9A75B",
"yX c #8F8B68",
"uX c #BAAB62",
"iX c #B2A667",
"pX c #A59B60",
"aX c #C5AB56",
"sX c #CEB45C",
"dX c #CAB765",
"fX c #D6BC62",
"gX c #D8C369",
"hX c #D7C672",
"jX c #E4CA69",
"kX c #EAD06E",
"lX c #E1CE73",
"zX c #E8D577",
"xX c #F3D973",
"cX c #FEE479",
"vX c #FCE077",
/* pixels */
"                                                    =X@.| | W | | O.-X>X4XqX                                                    ",
"                                            1X-X| E R K H H H L ^ { X.=X<XqXrXaXsXfX                                            ",
"                                        >X-XX.{ L c l m a 1.1.1.1.1.2.n S _.3XeXdXgXkXkX                                        ",
"                                    <X>X>X%.U p.q.8.9.9.9.8.w.q.q.7.7.7.,.;.:.6.Y .XtXjXjXaX9X                                  ",
"                                9X<X<X}.k.q.b.b.M.r.d.k.i.J.N p._.G.H.G.p.s.s.<.,.,.y G.8X5XX.Q                                 ",
"                            rXeX9XXXd.M.m.b.z.k.p.S 6.) 6.[ 6.f.$.` ).A }._..Xp.K.2.>.,.9 v < 1 R O.                            ",
"                          aXaX6Xk.b.n.N.n.n.!.] Z _ 4.!.4.s.f.s.a.B N g.g.).[ A .Xb >.,.<.=.9 t P T X.                          ",
"                      aXaXsX@Xr.n.F.N.S.n.n.l.` p.s.9.8.q.0.4.e.4.4.3.<.,.3.s h._ a ,.,.<.<.<.y 8 , T X.<X                      ",
"                    qXaXaX'.b.C.D.$XF.n.N.N.M.9.w.r.g.U / / / ^ ( .. .$.[ !.i.>.>.3.,.,.<.<.`.p.=.q f { =X5X                    ",
"                  <X9XwXP.m.A.#XF. X].N.N.n.t.G.[ | { L P , , , < ! / &.6XrXtX7X_.s <.,.<.G.[.2.I.6.9 g } >X<X                  ",
"                >X1X4Xx.n.Q.x.L.#XF.C.N.l.{.;X=X} I m 1.:.7.7.7.0.0.>.>.a S $.wXgXtX[ s <.>.N T.[._.s 9 r ..:X1X                ",
"              @.O.&.d.n.A.].$XA.F.N.M.{.2X>X+.M 3.8.m.M.M.B.B.c.H.d.H.d.z.r.<.1.Y *.&.^ c y ,.p /.K.p.N 9 r | -X@.              ",
"              W ..d.N.D.C.l.U.Z.S.c.3XqX%.B 9.m.n.A.F.I.v.v.k.j.a.h.j.H.g.H.J.d.u.y r 1 R ~ d >.1.0 '.^.0 9 g | |               ",
"            E E Z N.D.&XW.L.C.S.I.eXeX~.q.A.C.Z.F.E.v.^.v.^.I.k.H.g.g.H.d.H.!.H.(.f.>.y ; R ..x =.>.g.[./.u q f T W             ",
"          T K C b.Z.Q.Z.[.C.N.J.0X4Xf.C.F.E.v.E.v.E.Y.`.I.v.j.k.g.H.h.H.H.H./.^.(.Y N s y 6 ~ &.C 9 9 A [.G.q 4 , E |           ",
"          H J w.D.W.&X#XC.S.G.<X3Xi.A.W.E.E.%Xv.`.E.v.v.c.r.l.l.r.e.5.s.f.H./.G.Z B n i u 9 4 ~ ;XC 9 y j.(.~.8 3 J |           ",
"        K F i.n.Z.c.z.Z.S.d.o. .4.Z.W.E.E.E.E.E.v.F.F.F.V.F.v.l.s.6.y.y.e.l.j.5.i.n m e 6 6 9 w ~ #.j 9 6..X(.u 4 * E X.        ",
"        G , b.Z.&X&Xt.S.r.^ ^ 6.Z.W.E.W.E.E.Y.F.A.x.v.v.l.l.w.b.M.5.z.z.z.z.d.q.7.1.m 6 5 6 5 0 6 R T u 9 d (.|.6 2 P X.>X      ",
"      <XL 6.S.S.W.I.N.M.! K a C.W.E.E.E.`.v.c.F.x.!.x.^.e.l.g.d.s.!.!.!././.!.B l.v.h.7 6 6 6 6 0 5 R ! 8 y G.OXM 2 * | 5X      ",
"      aX] b.S.%XR.S.S.M H k B.W.Y.U.Y.Y.x.y.r.F.c.t.M.b.b.8.8.b.8.4.4.4.7.4.4.2.S h.Z w g l e 7 6 8 : T l q s ~.m 3 2 ~ 5X      ",
"    vXfXj.n.S.R.Z.S.y.J 1 0.R.P.`.v.Y.x.s.M.n.n.M.x.v.v.v.v.E.`.].%X`.].#XL.e.,.,.7.e 6.5 t n h 3 6 8 P { w q h b M 2 - <XaX    ",
"    cXuXw.A.&XW.C.N._ K u A.Y.Y.v.Y.v.n.y.v.n.n.c.$.%.$.XX3X4XwXaXdXhXlXlXhXiX+Xs.;.:.b y i b 5 5 5 8 7 | ! q w (.~.# # %.aX    ",
"  cXcX+Xm.F.%XT.N.t.7X~ 0.Y.K.P.v.`.V.N.n.h.r.n.e.U U } %.;X;XXX4X7XpXpXtXdXgXdX8Xg.;.<.,.0 5 5 5 5 6 q ~ ,Xr 8 D ~.b @ ~ aXsX  ",
"  cXzXY.n.#X[.F.n.|.gXA V.~.H.I.v.c.N.C.v.w.M.n.m.b.w.s.h.U i.3.4.4.3.3.3.s.{.7X0X*.n ;.,.;.8 5 5 5 t u f 5X' 2 M ).U # - aXfX  ",
"  cXdXy.C.T.P.V.b.pXtXq.R.J.P.I.j.C.N.F.l.b.n.b.v.[.}..X+.}.}.{.|..X2.8.8.7.,.B 3X,X] >.<.<.y 5 7 7 k b 4 ,X3X2 7 ` j # $ qXgX  ",
"  cX7X9.t.x.L.n.c.gXoX9.U.Y.T.c.z.v.].v.M.n.V.*XpX4X-Xo.....X.%.*.;X) 7.8.7.0.:.[ 5X*.a ,.<.>.8 7 7 7 r q ( rXt 2 3 h # @ ,XjX  ",
"kXcX+Xm.U.*XY.n.^.kX^.V.P.P.P.z.`.|.(.y.S.N.yXdXeX4X+.U S D C U ..o. .s 7.7.7.7.[ 6X6XN ,.y =.y 7 g t g 8 x sXc 2 r _ @ X +.jXqX",
"kXvX'.m.R.I.t.m.@XgXs.R.P.P.I./.~.'.t.n.S.&XlXdX0XG.3.r.{.[ i.,.6.U ..n 7.7.7.3.+XwX0Xs =.,.,.9 r g h h r 5 aX] 2 2 t t X J fX9X",
"jXkXI.b.$X&Xt.9.8XuX4.L.H.P.P._ a.M.m.m.V.dXzXdX^.8.`.}. .| U l.0.:.s :.7.7.,.v.pXdX8X>.;.=.=.=.i h h j h 4 0X%.# t .X) X , sX6X",
"aXsXz.b.y.z.y.9.7XwX0.z.H.d.H.) Z M.b.b.%XzXzX3X8.v.XX+.U U } ( _ s.q.8.7.3.^.yXfXtXZ =.<.s.s.1.n j j b h 4 3X&.# % ` x X * eX1X",
"1X9Xl.B.$X[.B.0.,XoXq.L.d.H.d.) h.M.b.m.*XzXfX^.8.}.%.V h.h.v V ....[ ~.[.@XwXuX7XG.=.s.A }.}.~.~.D b b h 4 %.%.# 3 ` C $ + 9X;X",
"| &.5.M.t.P.y.7.( ( q.d.f.d.g.Y h.9.b.b.+XfXiXl.8.{.%.M +...N j.+...} (  .2XeXuX_.-.;.6.s S !.S D _ S j j 3 +.} # % _ {.o & <XX.",
"L } 4.V.#X].B.<.J I e.h.a.a.f.U s.b.b.9.|.tX0Xu.8.Z +.( +. .[ +./ M a -.1.N }.dXhX+Xp <.>.9 -.i.~.C V j j 3 / ^ # # % : o & ;XE ",
"K L 6.y.(./.e.7., P 4.a.b p.p.V u.m.9.b.^.6X6XB 9.3.C .. . .( M 1.,.7.7.7.;.=.!.dXlX.X9 <.=.f.'.[.D M z j 3 L J @ * ` ` & + O.T ",
"G L 6.M.q.M.M.<., P <.6.n n n b n w.b.9.H.*.&.' 7.8.7.N +.#.n ,.7.7.,.:.<.7.;.=.@XlXuXn 9 >.M ' {.U z j h 2 L 1 @ % ; k O + | L ",
"F K a 9.F.#Xb.8.: P >.6.i a m 6.s M 0.9.0./ %. .B 8.8.4.$.,XN 7.7.3.^.6.;.<.;.;.j.dXfX` =.9 V ) B V j j f 2 L 1 @ 3 )._ . = E H ",
"F K m 8.B.l.M.8.f G e 3.m e m m 9.4.N 9.8.N  .%.%./.r.3.B D p y.v.|.%.] 1.<.;.;.p.iXfX.X9 -.e k g b j j 5 & K = # % : - . = E G ",
"F G k 7.c.x.s.8.e G g 3.e e e i 0.M.G.u.y.,.V %.,X6X8X8X+X*X+X8X4X,X%./ 0 <.:.:.s.eXdX}.9 -.e 7 f j j j 3 - K & @ C l & . 1 L F ",
"  K P 8.z.[.`.9.>.F l <.e e m e p l.a.e.Z 8.,.B *.rXdXhXlXlXgXaX0X*.U e <.:.<.:.(.wXrX` 9 9 e V V z j j 2 P H @ $ C ' : . F R   ",
"  G J 3.q.s.v.e.,., G 1.0 m m 6 u <.a 3.s 0.8.7.3.!.+X7XpXiX7X@XY a :.;.<.;.=.2.@X0X4Xi =.9 0 V V x x f % E P @ $ o . . O L R   ",
"  H K m 7.'.OXp.7.7 R h <.6 w 6 r N 6.d n s 0.0.0.,.;.4.+XyXJ.>.,.<.>.<.:.>.p.}.2X2XU 9 -.q n S D x x 3 > | + @ o [ o . + T R   ",
"  F L l 7.i.2.q.9.0 J ~ <.e 6 6 u r p N d k v 7.l.&X*XyXzXcXdXyXyX+X@X}.).}.XX&.%.C 9 9 9 6.A U C x j % ..^ o X X * O . G Q H   ",
"    K L 1.q.f.[.r.,.f X.V :.6 j 6 6 u <.p m , n j.dXzXxXzXzXlXgXsXwX2X;X%. .( C w 9 0 9 m U A D C D 5 l =X> X * C k . o { |     ",
"    L E b ,.J.`.e.0.0 } %.6.0 6 6 6 7 u <.i.U Z 3.k.j.k.H.g.g.g.B B n m a u q 9 0 0 9 0 a.A A D A r % ;X} O X o ! l . 1 X.E     ",
"      E ~ :.3.`.[.5.,.j <X+.=.6 w g 6 r a 3.~.p.,.,.;.,.;.;.;.=.,.=.=.>.=.=.=.0 9 9 0 a.h.g.Z A M # [ 5X> X ; ' : O O } @.      ",
"      { X.a.;.k.u.<.7.=.] 9Xh.=.7 k 6 r i b U a ,.j.p.;.;.:.;.:.>.3.3.1.2.f.y 9 9 6.g.g.g.A h.!.5 , 9X^ X o x c l . 1 =X|       ",
"      R O. .1.3.4.L.4.,.w %.6XB -.6 6 r r m V n <.6.m 5.s.s.5.`.(.J.a.p.G.).p >.p.g.h.S A Z Z 5 ; >X&.o X C ' Y . O %.=XT       ",
"        @.1X!.;.<.`.e.4.;.g >X,Xn 0 e 6 r m b b B p.^.'.(.(.^.d.y 9 =.9 9 p p.j.k.h.g.Z A Z 5 * %.&.- X & l [ > . R 5X@.        ",
"          5X2Xp.:.:.I.'.3.:.g ;X,XN y w r d v M M B G.G.^.^.G.2.6.p.f.a.j.k.G.k.g.h.A A B % :  .#.: . & .X` ; . = 5X5X          ",
"          ;XqXoX1.1.^.H.(.3.=.f #.&.D y u d v M M Y A A A H.g.g.k.!.!.k.k.k.g.h.A A A d % k o...= X % x ] [ o O &.qX;X          ",
"            6XqX).-.1.[.OXa.1.=.r ^ >X( a y d v A A G.G.g.g./.[.g.h.h.g.h.S A S A b 3 * ! #.T + X @ c ' > o . ~ qX5X            ",
"              9XqX!.=.i.g.].K.1.y 4 ! &.&.` u y d y s Y B A G.~.g.g.g.A S g.B d 6 3 c | | < o X & > ! ) + . < 5X5X              ",
"              #.9X6Xh.=.6.^.T.(.s ,.q t ^ ,X5X_.n 9 y 9 y 9 y d S Z Z b i 6 3 t c  .#.L = @ X & Y l + o . 1 ;X<X#.              ",
"                @.5X<XS 9 p (.[.K.H.y 9 8 : ^ 6XtX7X).B u 8 q 4 8 4 8 7 k c ~ } | T = $ X X x ) l ' + . 1 #.>X#.                ",
"                  X.<X<X_ 9 p H.`.(.J.2.y 9 4 ; / wXjXkXgXuXwX6X( ..&.&.X.T H 1 * $ @ X ; Y c ] > . . , #.=X#.                  ",
"                     .,X1X] p q a.B  XN Z s y 9 q 5 z [ oX6X6X .R T / P > & $ @ @ @ t : ` ! > + . O ~ X.@...                    ",
"                      { ;X>X$.N 9 y Z n K._.'.u q q q 4 2 2 2 # 2 # # # # # # @ @ * ` & c l O . + ^ O.X.^                       ",
"                          o.>X,X[ u q q b |.(.u (.8 G.v 8 6 4 6 5 r % g t D x & _.& ' k O . O < X.X.|                           ",
"                            | -X1X3X` u q u 6 u M w +XY t _.r ` Y OX) ' [ ) ).& & X . . O <  .@.| T                             ",
"                                X.=X6X6X[ d 2 2 2 6 D x k ` h ` Y [ x C z & ; X . O + <  .@.| E                                 ",
"                                  R | 1XrXuX8X] h % # # # # % % $ % @ X X O X + , ~ } X.X.{ K                                   ",
"                                        Q 5XsXxXjXuX8X$.] c l > : : > < ~ / } | E E T E                                         ",
"                                            #.rXlXvXvXcXcXxXgXqX@.X.=X1X:XX.E R K J                                             ",
"                                                    eXtXsXaX6XX.E | #.o.{ R                                                     "
};
