/* XPM */
static char *_e90526cf55c400da6e35f48ca056bd5qXTAQHYxemn7juaQ[] = {
/* columns rows colors chars-per-pixel */
"32 32 216 2 ",
"   c None",
".  c #0C0D0C",
"X  c #1B170D",
"o  c #0F1215",
"O  c #141413",
"+  c #1C1A14",
"@  c #121519",
"#  c #171A1C",
"$  c #1B1D1D",
"%  c #221D12",
"&  c #2B200D",
"*  c #252013",
"=  c #23231D",
"-  c #2A271C",
";  c #312C1A",
":  c #352A17",
">  c #3B3119",
",  c #3B3117",
"<  c #161B23",
"1  c #1A1E25",
"2  c #151D2C",
"3  c #191F2D",
"4  c #0B1E3D",
"5  c #071A3C",
"6  c #141E32",
"7  c #0F1825",
"8  c #1D2123",
"9  c #17212F",
"0  c #1D222C",
"q  c #0E203C",
"w  c #1B2433",
"e  c #14223A",
"r  c #19253A",
"t  c #1D293C",
"y  c #192437",
"u  c #2C2B24",
"i  c #22262B",
"p  c #25292C",
"a  c #2A2C2C",
"s  c #222523",
"d  c #342C22",
"f  c #302E29",
"g  c #2F3025",
"h  c #353226",
"j  c #3A3424",
"k  c #32332C",
"l  c #3B3729",
"z  c #3D3A2C",
"x  c #242B35",
"c  c #2A2F33",
"v  c #222C3B",
"b  c #212730",
"n  c #2D3233",
"m  c #2C333C",
"M  c #23303F",
"N  c #323533",
"B  c #383633",
"V  c #3B3C34",
"C  c #31363B",
"Z  c #343A3C",
"A  c #3A3C3A",
"S  c #343836",
"D  c #453A1D",
"F  c #4B3C1C",
"G  c #443316",
"H  c #523C18",
"J  c #4C340F",
"K  c #403621",
"L  c #453D2A",
"P  c #413D30",
"I  c #3D413E",
"U  c #4D411F",
"Y  c #54411B",
"T  c #5C451A",
"R  c #644D1F",
"E  c #69501E",
"W  c #4E4324",
"Q  c #47402C",
"!  c #544422",
"~  c #5A4F2D",
"^  c #5C4921",
"/  c #444235",
"(  c #4D4735",
")  c #42433B",
"_  c #494639",
"`  c #4C4A3B",
"'  c #4D4836",
"]  c #544D33",
"[  c #5B5235",
"{  c #5B543A",
"}  c #54503A",
"|  c #614D24",
" . c #6B5423",
".. c #6C5C2E",
"X. c #685526",
"o. c #725B26",
"O. c #655C3C",
"+. c #655A37",
"@. c #725F31",
"#. c #77612B",
"$. c #7A642E",
"%. c #7B6B3A",
"&. c #776636",
"*. c #6F6239",
"=. c #061E48",
"-. c #091E43",
";. c #0C2145",
":. c #0B224A",
">. c #132645",
",. c #192742",
"<. c #1C2B44",
"1. c #122749",
"2. c #162B4C",
"3. c #1A2D4B",
"4. c #172843",
"5. c #1F314F",
"6. c #0A2555",
"7. c #142B53",
"8. c #192E53",
"9. c #142F5F",
"0. c #1D3254",
"q. c #1A325A",
"w. c #212E43",
"e. c #253246",
"r. c #2B3543",
"t. c #2D3946",
"y. c #22334B",
"u. c #29364B",
"i. c #2C3A4C",
"p. c #27384F",
"a. c #343B44",
"s. c #393D42",
"d. c #333D4A",
"f. c #303745",
"g. c #223452",
"h. c #2B3B53",
"j. c #213659",
"k. c #23395C",
"l. c #2B3D5C",
"z. c #323F52",
"x. c #0D2D64",
"c. c #0D2F6A",
"v. c #102E62",
"b. c #0D306B",
"n. c #183669",
"m. c #223C66",
"M. c #213D6B",
"N. c #3B4144",
"B. c #364149",
"V. c #3D464A",
"C. c #3F484D",
"Z. c #2E415B",
"A. c #344253",
"S. c #33435C",
"D. c #39465B",
"F. c #3B4653",
"G. c #2B446A",
"H. c #2D4261",
"J. c #334462",
"K. c #364963",
"L. c #384963",
"P. c #424543",
"I. c #444B4C",
"U. c #464946",
"Y. c #4F524B",
"T. c #565443",
"R. c #5C5B45",
"E. c #5B5C49",
"W. c #575747",
"Q. c #454D54",
"!. c #4D5553",
"~. c #4A565A",
"^. c #5A5E54",
"/. c #635E45",
"(. c #5F604F",
"). c #5A615B",
"_. c #6C6545",
"`. c #61624E",
"'. c #6C6749",
"]. c #797249",
"[. c #6A6A54",
"{. c #646859",
"}. c #7A7757",
"|. c #746A42",
" X c #475560",
".X c #6A7062",
"XX c #7D7C60",
"oX c #836C33",
"OX c #8E7637",
"+X c #947D3D",
"@X c #987E39",
"#X c #83794C",
"$X c #857848",
"%X c #9A823D",
"&X c #8E844F",
"*X c #998442",
"=X c #9F8844",
"-X c #89845B",
";X c #998F58",
":X c #958A55",
">X c #9F955C",
",X c #B79B4B",
"<X c #AB9D5B",
"1X c #A7914C",
"2X c #BDA453",
"3X c #8A8967",
"4X c #81846E",
"5X c #A29A65",
"6X c #B7AB69",
"7X c #C3AA58",
"8X c #D3B75D",
"9X c #CCB766",
"0X c #D1BA63",
"qX c #DEC76A",
"wX c #E7CF6F",
"eX c #F8DD74",
/* pixels */
"                        o.R H ! | @.$X7X                        ",
"                  @X&.] m w.<.3.y.w.s.R.-X9X8X                  ",
"              ,X$XT.j.g.y.e.f.r.U.B.V.f.<.u.T.! E               ",
"            7X}.m.c.c.d.r.y.y.e.t.r.f.s.C :.=.e d  .            ",
"          1X).M. Xn.c.h.s.P K K L [ _.(.B.:.3.d.,.k $.          ",
"        $.Q.M.K.M.l.W.{ a.3.9.8.y.u.d.E.].( t e.P.<.N #.        ",
"      | B.G.H.n.~.$XC.m.m.z.z.z.a.d.d.d.t.p j N >.V.w.f R       ",
"    T B n.L.m.I.'.l.l.l.L.z.z.i.u.p.d.P.N.t 9 Q I ,.P.t >  .    ",
"    G q.K.m.f.' m.J.L.l.l.l.j.j.5.g.h.p.,.w 2 6 L u r.N.1 ^     ",
"  ,Xs.n.G.q.l g.D.D.z.m.l.j.8.8.g.u.u.<.u.x 9 9 3 K w N.0 j %X  ",
"  9XH.G.n.S v S.F.m.j.c.z.Y.W.[.}.3X3X).3.r w 0 2 s L 9 N 1 %X  ",
"  5Xm.K.K.'.h.V.z.n.j.v.j.P.[ W.`.{.}.;X'.1.;.< < 2 ~ c I 8 %.  ",
"eX.Xk.m..X{.l.A.l.m.b.G..X/.[ { /.y.6.3.%.I ;.5 8 0 / } 0 < ] 8X",
"wX XL.k.-XF.S.F.U.l.G.6X#XP._ s.' V 6.:.$X(.:.5 0 0 n %.7 8 j 2X",
"9XS.J.k.-XA.A.N.g.c.#X6Xz.T.] P e.<.7.!.<XV.1.4.x p p *.8 V - =X",
"%.k.S.0.{ p.i.A g.v.5X#Xz.[ P P.[ ` /.<X(.>.a.P.I n 0 ~ # k * %.",
"H y.D.8.h e.r.C q.x.].(.2.] X.( m >.<.`.5Xt.-.t.P.N s K @ u + X.",
"G 3.j.7.d r t v <.6.` +.2.3.{ <.7.3.:.:.:X#X4 A A a 1 : @ k % H ",
"G w.m.8.u 6 e y 2.5.2.[ |.(.(.).`.[ ;.:.[.:X4 0 p p % : $ = X H ",
"J c h.h.b a e 3 <.3.2.2.(.>X6X;XT.t =.>.}._.5 x k p d % # X & H ",
"  j g.i.4.j e 3 0 r t 1.h.{.6X}.!.P.I { O.t 4 C B s K O # . G   ",
"  H <.z.8.z A 6 9 e t n !.-X3X-X[.} I n q 4 m A n z D o u X R   ",
"  R P p.p.4.O.v 3 0 v m 1.;.;.;.>.;.,.4 q e.Z C u ..+ g + D  .  ",
"    @.w.0.2.Z O.w 3 w c w.i.B.i.e.,.r.e.t.s.C p ~ ; = l * $.    ",
"    OX_.<.F.w.S [ v w c C N.V.B.t.f.f.s.Z m p W ; $ / + ..OX    ",
"      *XW.e.C.<.n ~ I c v m Z N.s.s.a.m c h U * @ l X U %X      ",
"        +X` e.I.<.r Q +.(.N.M M c c u l W , O = h X , oX        ",
"          oX` <.B.B.t w ' ].&X%.W ! > * @ @ g g O , #.          ",
"            $.+.C t N.r.e w 9 8 9 < 8 # 8 u + % Y  .            ",
"              #.&.O.A 9 w S p n ) z k = . * D R |               ",
"                  $.*X:X].' z g - - ; , F R  .                  ",
"                        qXqX0X*XX.#...T                         "
};
